<svg width="69" height="76" viewBox="0 0 69 76" fill="none" xmlns="http://www.w3.org/2000/svg">
<path d="M37.5503 -67.6699L38.0203 -67.4999L1.55029 32.48C1.37029 32.98 1.28027 33.4901 1.28027 34.0001C1.28027 35.8101 2.40019 37.51 4.19019 38.16L104.17 74.6299C104.7 74.8199 105.22 74.91 105.72 74.91C108.13 74.91 110.13 72.85 110.13 70.48C110.13 69.87 110 69.2301 109.7 68.5901L46.1902 -67.86C45.3802 -69.59 43.7902 -70.4199 42.1802 -70.4199C40.4302 -70.4199 38.7203 -69.4399 38.0103 -67.5099L37.5403 -67.6799L37.0703 -67.85C37.9303 -70.2 40.0602 -71.4299 42.1802 -71.4199C44.1402 -71.4199 46.1203 -70.38 47.1003 -68.28L110.61 68.17C110.97 68.94 111.13 69.72 111.13 70.48C111.13 73.41 108.7 75.9 105.72 75.91C105.1 75.91 104.46 75.8001 103.83 75.5701L3.85034 39.1002C1.65034 38.3002 0.280273 36.2201 0.280273 34.0001C0.280273 33.3801 0.390352 32.75 0.610352 32.14L37.0803 -67.84L37.5503 -67.6699Z" fill="url(#paint0_linear_4_9997)"/>
<defs>
<linearGradient id="paint0_linear_4_9997" x1="-5.44972" y1="14.0201" x2="106.46" y2="14.0201" gradientUnits="userSpaceOnUse">
<stop stop-color="#C8FF00"/>
<stop offset="1" stop-color="#00DC87"/>
</linearGradient>
</defs>
</svg>
