<?xml version="1.0" encoding="UTF-8"?>
<svg id="Logo" xmlns="http://www.w3.org/2000/svg" viewBox="0 0 265.22 293.14">
  <defs>
    <style>
      .cls-1 {
        fill: #fff;
        stroke-width: 0px;
      }
    </style>
  </defs>
  <g>
    <path class="cls-1" d="M72.72,225.68l12.76-15.34h-9.13l-10.71,12.88c-.31.37-.76.58-1.25.58h-6.29c-.89,0-1.61-.72-1.61-1.61v-11.86h-7.63v33.95h7.63v-11.86c0-.89.72-1.61,1.61-1.61h6.29c.48,0,.94.21,1.25.58l10.71,12.88h9.13l-12.76-15.34c-.79-.95-.79-2.32,0-3.26Z"/>
    <path class="cls-1" d="M106.77,209.73h-13.47c-.89,0-1.61.72-1.61,1.61v31.34c0,.89.72,1.61,1.61,1.61h13.47c6.29,0,11.73,0,15.49-2.16,4.02-2.3,5.89-7.11,5.89-15.12,0-17.28-8.5-17.28-21.37-17.28ZM109.16,237.88h-8.65c-.67,0-1.22-.55-1.22-1.22v-19.29c0-.67.55-1.22,1.22-1.22h8.65c8.96,0,10.88.94,10.88,10.87s-1.92,10.86-10.88,10.86Z"/>
    <path class="cls-1" d="M153.54,209.39c-8.24,0-10.43.99-13.01,8.73-2.11,6.33-7.33,22.19-8.64,26.17h7.59l2.62-7.93c.22-.66.83-1.1,1.52-1.1h19.78c.69,0,1.3.44,1.52,1.1l2.65,7.93h7.6l-8.75-26.17c-2.6-7.79-4.62-8.73-12.89-8.73ZM146.23,229c-.83,0-1.42-.82-1.16-1.61l1.86-5.61c1.46-4.36,1.78-5.74,6.56-5.74s5.11,1.38,6.56,5.74l1.87,5.61c.26.79-.32,1.61-1.16,1.61h-14.54Z"/>
    <path class="cls-1" d="M207.62,243.07l-17.29-20.31c-.42-.49-1.23-.2-1.23.45v21.07h-7.92v-31.85c0-1.35,1.09-2.44,2.44-2.44h4.35c.72,0,1.4.31,1.86.86l17.29,20.31c.42.49,1.23.2,1.23-.45v-20.72h8.02v31.5c0,1.35-1.09,2.44-2.44,2.44h-4.44c-.72,0-1.4-.31-1.86-.86Z"/>
  </g>
  <g>
    <g>
      <path class="cls-1" d="M134.39,155.6V52.43c0-3.18-3.84-4.77-6.09-2.52l-57.46,57.46c-1.39,1.39-1.39,3.65,0,5.04l51.13,51.13c2.98-4,7.37-6.89,12.42-7.95Z"/>
      <path class="cls-1" d="M191.85,118.21h-45.57c-1.97,0-3.57,1.6-3.57,3.57v33.78c5.09,1.01,9.51,3.88,12.54,7.87l39.13-39.13c2.25-2.25.66-6.09-2.52-6.09Z"/>
    </g>
    <circle class="cls-1" cx="138.66" cy="175.96" r="12.48"/>
  </g>
</svg>