<svg width="280" height="158" viewBox="0 0 280 158" fill="none" xmlns="http://www.w3.org/2000/svg">
<path d="M313.6 54.9399L313.09 56.3501L91.9797 -23.73C90.9197 -24.11 89.8398 -24.29 88.7798 -24.29C84.9398 -24.29 81.3297 -21.9101 79.9397 -18.0901L-0.140259 203.02C-0.550259 204.14 -0.730225 205.24 -0.730225 206.29C-0.730225 211.38 3.63978 215.63 8.64978 215.64C9.94978 215.64 11.3098 215.36 12.6698 214.72L313.86 73.6799C317.52 71.9599 319.26 68.6099 319.27 65.1899C319.25 61.4699 317.2 57.8401 313.07 56.3401L313.58 54.9299L314.09 53.52C319.47 55.46 322.28 60.3599 322.26 65.1899C322.28 69.6399 319.89 74.1799 315.12 76.3999L13.9298 217.44C12.1798 218.26 10.3798 218.64 8.63977 218.64C1.93977 218.62 -3.72023 213.1 -3.74023 206.29C-3.74023 204.89 -3.49021 203.44 -2.97021 202L77.1097 -19.1101C78.9397 -24.1501 83.6898 -27.29 88.7698 -27.29C90.1698 -27.29 91.5997 -27.05 92.9897 -26.55L314.1 53.53L313.59 54.9399H313.6Z" fill="url(#paint0_linear_4_10668)"/>
<defs>
<linearGradient id="paint0_linear_4_10668" x1="52.971" y1="181.303" x2="312.375" y2="-46.5892" gradientUnits="userSpaceOnUse">
<stop stop-color="#00DC87"/>
<stop offset="1" stop-color="#00D2E6"/>
</linearGradient>
</defs>
</svg>
