<?xml version="1.0" encoding="UTF-8"?>
<svg id="_圖層_1" data-name="圖層_1" xmlns="http://www.w3.org/2000/svg" version="1.1" viewBox="0 0 133 145">
  <defs>
    <style>
      .st0 {
        fill: #fff;
      }

      .st1 {
        fill: #00dc87;
      }
    </style>
  </defs>
  <path class="st0" d="M68.9,119.9c-5.6,5.6-5.6,14.6,0,20.2,5.6,5.6,14.6,5.6,20.2,0,5.6-5.6,5.6-14.6,0-20.2-2.8-2.8-6.4-4.2-10.1-4.2s-7.3,1.4-10.1,4.2"/>
  <path class="st1" d="M87.7,63.9c-2.3,0-4.1,1.8-4.1,4.1v38.7c5.8,1.2,10.9,4.4,14.3,9l34.9-34.9v-16.9h-45.2Z"/>
  <path class="st1" d="M52.8,0L1.4,51.5c-1.6,1.6-1.6,4.2,0,5.8l58.5,58.5c3.4-4.6,8.4-7.9,14.2-9.1V0h-21.3,0Z"/>
</svg>