<svg width="142" height="58" viewBox="0 0 142 58" fill="none" xmlns="http://www.w3.org/2000/svg">
<path d="M4.42047 69.6799L4.59064 69.21L99.8306 104.41C100.311 104.59 100.801 104.67 101.291 104.67C103.001 104.67 104.611 103.62 105.231 101.92L140.43 6.67993C140.62 6.16993 140.701 5.66994 140.701 5.18994C140.701 2.90994 138.751 1.01 136.501 1C135.921 1 135.331 1.1199 134.731 1.3999L4.29059 61.45C2.64059 62.2099 1.85064 63.72 1.84064 65.26C1.84064 66.91 2.76064 68.53 4.59064 69.21L4.42047 69.6799L4.25055 70.1499C2.01055 69.3199 0.84065 67.28 0.85065 65.26C0.85065 63.38 1.86043 61.47 3.88043 60.54L134.321 0.48999C135.051 0.14999 135.791 0 136.511 0C139.321 0 141.701 2.32994 141.711 5.18994C141.711 5.78994 141.6 6.41002 141.38 7.02002L106.18 102.26C105.4 104.36 103.411 105.66 101.301 105.66C100.701 105.66 100.091 105.56 99.5005 105.34L4.26056 70.1399L4.43048 69.6699L4.42047 69.6799Z" fill="url(#paint0_linear_4_9995)"/>
<defs>
<linearGradient id="paint0_linear_4_9995" x1="-4.87934" y1="64.5999" x2="137.031" y2="64.5999" gradientUnits="userSpaceOnUse">
<stop stop-color="#00DC87"/>
<stop offset="1" stop-color="#6950FF"/>
</linearGradient>
</defs>
</svg>
