<svg width="70" height="48" viewBox="0 0 70 48" fill="none" xmlns="http://www.w3.org/2000/svg">
<path d="M68.7003 40.1699L68.2603 40.4099L17.0904 -52.9099C16.2804 -54.3799 14.7702 -55.21 13.2002 -55.21C12.4802 -55.21 11.7504 -55.0299 11.0704 -54.6599L-82.2497 -3.48999C-83.8197 -2.62999 -84.5498 -1.13012 -84.5498 0.379883C-84.5498 2.22988 -83.4498 4.0399 -81.3598 4.6499L63.1302 46.79C63.5702 46.92 64.0002 46.98 64.4102 46.98C66.8502 46.98 68.8104 44.89 68.8104 42.54C68.8104 41.84 68.6403 41.1199 68.2503 40.4099L68.6902 40.1699L69.1302 39.9299C69.6002 40.7799 69.8104 41.68 69.8104 42.54C69.8104 45.44 67.4302 47.97 64.4102 47.98C63.9002 47.98 63.3804 47.91 62.8504 47.75L-81.6396 5.61011C-84.1796 4.87011 -85.5598 2.61988 -85.5498 0.379883C-85.5498 -1.45012 -84.6297 -3.33011 -82.7297 -4.36011L10.5904 -55.53C11.4204 -55.98 12.3102 -56.2 13.2002 -56.2C15.1202 -56.2 16.9803 -55.1799 17.9703 -53.3799L69.1402 39.9399L68.7003 40.1799V40.1699Z" fill="url(#paint0_linear_4_9996)"/>
<defs>
<linearGradient id="paint0_linear_4_9996" x1="-203434" y1="-1.15999" x2="-203277" y2="-1.15999" gradientUnits="userSpaceOnUse">
<stop stop-color="#00DC87"/>
<stop offset="1" stop-color="#6950FF"/>
</linearGradient>
</defs>
</svg>
