<svg width="1135" height="600" viewBox="0 0 1135 600" fill="none" xmlns="http://www.w3.org/2000/svg">
    <g opacity=".8">
        <path d="m37.86 594.566 338.494-281.524c8.661-7.204 8.661-18.882 0-26.085L37.859 5.439C23.886-6.18 0 2.052 0 18.48V581.52c0 16.433 23.886 24.66 37.86 13.039v.007z" fill="#00DC87"/>
        <path d="m97.118 594.566 294.973-281.524c7.548-7.204 7.548-18.882 0-26.085L97.118 5.439C84.942-6.18 64.13 2.052 64.13 18.48V581.52c0 16.433 20.818 24.66 32.988 13.039v.007z" fill="#00C37C"/>
        <path d="m156.377 594.566 251.457-281.524c6.436-7.204 6.436-18.882 0-26.085L156.377 5.439c-10.38-11.62-28.124-3.387-28.124 13.04V581.52c0 16.433 17.744 24.66 28.124 13.039v.007z" fill="#00AA70"/>
        <path d="m215.636 594.566 207.935-281.524c5.318-7.204 5.318-18.882 0-26.085L215.636 5.439c-8.584-11.62-23.253-3.387-23.253 13.04V581.52c0 16.433 14.676 24.66 23.253 13.039v.007z" fill="#009165"/>
        <path d="m274.902 594.566 164.412-281.524c4.206-7.204 4.206-18.882 0-26.085L274.902 5.439c-6.788-11.62-18.389-3.387-18.389 13.04V581.52c0 16.433 11.601 24.66 18.389 13.039v.007z" fill="#007859"/>
        <path d="m334.16 594.566 120.89-281.524c3.094-7.204 3.094-18.882 0-26.085L334.16 5.439c-4.992-11.62-13.518-3.387-13.518 13.04V581.52c0 16.433 8.533 24.66 13.518 13.039v.007z" fill="#005F4E"/>
        <path d="m393.42 594.566 77.374-281.524c1.981-7.204 1.981-18.882 0-26.085L393.42 5.439c-3.196-11.62-8.654-3.387-8.654 13.04V581.52c0 16.433 5.458 24.66 8.654 13.039v.007z" fill="#004642"/>
        <path d="m452.679 594.566 33.851-281.524c.863-7.204.863-18.882 0-26.085L452.679 5.439c-1.4-11.62-3.784-3.387-3.784 13.04V581.52c0 16.433 2.39 24.66 3.784 13.039v.007z" fill="#002D37"/>
    </g>
    <g opacity=".8">
        <path d="M1096.32 594.566 757.822 313.042c-8.661-7.204-8.661-18.882 0-26.085L1096.32 5.439c13.97-11.62 37.86-3.387 37.86 13.04V581.52c0 16.433-23.89 24.66-37.86 13.039v.007z" fill="#00DC87"/>
        <path d="M1037.06 594.566 742.085 313.042c-7.549-7.204-7.549-18.882 0-26.085L1037.06 5.439c12.17-11.62 32.99-3.387 32.99 13.04V581.52c0 16.433-20.82 24.66-32.99 13.039v.007z" fill="#00C37C"/>
        <path d="M977.799 594.566 726.342 313.042c-6.436-7.204-6.436-18.882 0-26.085L977.799 5.439c10.38-11.62 28.121-3.387 28.121 13.04V581.52c0 16.433-17.741 24.66-28.121 13.039v.007z" fill="#00AA70"/>
        <path d="M918.539 594.566 710.605 313.042c-5.318-7.204-5.318-18.882 0-26.085L918.539 5.439c8.585-11.62 23.254-3.387 23.254 13.04V581.52c0 16.433-14.676 24.66-23.254 13.039v.007z" fill="#009165"/>
        <path d="M859.274 594.566 694.862 313.042c-4.206-7.204-4.206-18.882 0-26.085L859.274 5.439c6.788-11.62 18.389-3.387 18.389 13.04V581.52c0 16.433-11.601 24.66-18.389 13.039v.007z" fill="#007859"/>
        <path d="M800.015 594.566 679.126 313.042c-3.094-7.204-3.094-18.882 0-26.085L800.015 5.439c4.992-11.62 13.519-3.387 13.519 13.04V581.52c0 16.433-8.533 24.66-13.519 13.039v.007z" fill="#005F4E"/>
        <path d="m740.756 594.566-77.374-281.524c-1.982-7.204-1.982-18.882 0-26.085L740.756 5.439c3.196-11.62 8.654-3.387 8.654 13.04V581.52c0 16.433-5.458 24.66-8.654 13.039v.007z" fill="#004642"/>
        <path d="m681.497 594.566-33.851-281.524c-.863-7.204-.863-18.882 0-26.085L681.497 5.439c1.4-11.62 3.784-3.387 3.784 13.04V581.52c0 16.433-2.39 24.66-3.784 13.039v.007z" fill="#002D37"/>
    </g>
</svg>
