<svg width="106" height="91" viewBox="0 0 106 91" fill="none" xmlns="http://www.w3.org/2000/svg">
<path d="M32.0303 4.62018L32.5002 4.7901L-3.96973 104.77C-4.14973 105.27 -4.23975 105.78 -4.23975 106.29C-4.23975 108.1 -3.11983 109.8 -1.32983 110.45L98.6501 146.92C99.1801 147.11 99.7002 147.2 100.2 147.2C102.61 147.2 104.61 145.14 104.61 142.77C104.61 142.16 104.48 141.52 104.18 140.88L40.6702 4.42999C39.8602 2.69999 38.2702 1.87018 36.6602 1.87018C34.9102 1.87018 33.2002 2.85009 32.4902 4.78009L32.0203 4.61017L31.5503 4.44C32.4103 2.09 34.5402 0.860178 36.6602 0.870178C38.6202 0.870178 40.6003 1.91007 41.5803 4.01007L105.09 140.46C105.45 141.23 105.61 142.01 105.61 142.77C105.61 145.7 103.18 148.19 100.2 148.2C99.5802 148.2 98.9403 148.09 98.3103 147.86L-1.66968 111.39C-3.86968 110.59 -5.23975 108.51 -5.23975 106.29C-5.23975 105.67 -5.12967 105.04 -4.90967 104.43L31.5603 4.45001L32.0303 4.62018Z" fill="url(#paint0_linear_4_9998)"/>
<defs>
<linearGradient id="paint0_linear_4_9998" x1="-10.9698" y1="86.3101" x2="100.94" y2="86.3101" gradientUnits="userSpaceOnUse">
<stop stop-color="#04D2E1"/>
<stop offset="0.04" stop-color="#2CDCB2"/>
<stop offset="0.08" stop-color="#51E487"/>
<stop offset="0.13" stop-color="#71EB63"/>
<stop offset="0.17" stop-color="#8CF144"/>
<stop offset="0.22" stop-color="#A2F62B"/>
<stop offset="0.28" stop-color="#B3FA17"/>
<stop offset="0.35" stop-color="#BFFC0A"/>
<stop offset="0.43" stop-color="#C5FE02"/>
<stop offset="0.58" stop-color="#C8FF00"/>
<stop offset="0.99" stop-color="#00D2E6"/>
<stop offset="1" stop-color="#00D2E6"/>
</linearGradient>
</defs>
</svg>
